<?xml version="1.0" encoding="iso-8859-1"?>
<!-- Generator: Adobe Illustrator 19.0.0, SVG Export Plug-In . SVG Version: 6.00 Build 0)  -->
<svg xmlns="http://www.w3.org/2000/svg" xmlns:xlink="http://www.w3.org/1999/xlink" version="1.1" id="Layer_1" x="0px" y="0px" viewBox="0 0 512 512" style="enable-background:new 0 0 512 512;" xml:space="preserve" width="512" height="512">
<g>
	<circle style="fill:#E0F4FF;" cx="256" cy="256" r="256"/>
	<path style="fill:#BBDCFF;" d="M511.982,254.561L387.46,130.04L130.047,387.453l124.529,124.529   c0.476,0.003,0.948,0.018,1.424,0.018c141.385,0,256-114.615,256-256C512,255.519,511.984,255.042,511.982,254.561z"/>
	<g>
		<rect x="159.496" y="159.496" style="fill:#47568C;" width="193.008" height="193.008"/>
		<rect x="256" y="159.496" style="fill:#2C3B73;" width="96.504" height="193.008"/>
		<path style="fill:#FF641A;" d="M273.8,74.572l-11.581,57.903l-6.219,6.22l-42.891,42.247L159.496,281.52L118.964,256    l-10.508-106.583C142.34,102.452,196.596,73,256,73C261.791,73,267.795,73.929,273.8,74.572z"/>
		<path style="fill:#F03800;" d="M262.219,132.475l-6.219,6.22V73c5.791,0,11.795,0.929,17.8,1.572L262.219,132.475z"/>
		<path style="fill:#979FEF;" d="M90.075,331.059l53.337,21.445l69.697-21.445L108.366,149.504C86.229,180.105,73,217.319,73,256    C73,282.774,79.663,308.137,90.075,331.059z"/>
		<path style="fill:#64E1DC;" d="M298.891,331.059l-12.439,59.189L256,420.057l-17.8,17.371    c-66.051-6.435-121.809-48.467-148.186-106.369H298.891z"/>
		<polygon style="fill:#00C8C8;" points="256,331.059 298.891,331.059 286.452,390.248 256,420.057   "/>
		<path style="fill:#7FE881;" d="M403.544,362.583C369.66,409.548,315.404,439,256,439c-5.791,0-11.795-0.93-17.8-1.572l17.8-31.955    l107.227-192.364L403.544,362.583z"/>
		<path style="fill:#5BC980;" d="M403.544,362.583C369.66,409.548,315.404,439,256,439v-33.527l107.227-192.364L403.544,362.583z"/>
		<path style="fill:#FDBF00;" d="M421.925,180.941l-53.337-21.445l-69.697,21.445l104.744,181.555    C425.771,331.895,439,294.681,439,256C439,229.226,432.337,203.863,421.925,180.941z"/>
		<path style="fill:#FDBF00;" d="M421.986,180.941H213.109L256,105.668l17.8-31.096C339.851,81.007,395.609,123.039,421.986,180.941    z"/>
		<path style="fill:#FF9100;" d="M421.986,180.941H256v-75.273l17.8-31.096C339.851,81.007,395.609,123.039,421.986,180.941z"/>
	</g>
</g>















</svg>
